<?xml version="1.0" encoding="UTF-8"?>
<svg xmlns="http://www.w3.org/2000/svg" xmlns:xlink="http://www.w3.org/1999/xlink" width="648pt" height="446pt" viewBox="0 0 648 446">
<defs>
<g>
<g id="glyph-0-0">
<path d="M 0.703125 -5.4375 L 1.5625 -5.4375 L 1.5625 -4.5 C 1.632812 -4.6875 1.804688 -4.910156 2.078125 -5.171875 C 2.359375 -5.429688 2.679688 -5.5625 3.046875 -5.5625 C 3.066406 -5.5625 3.097656 -5.554688 3.140625 -5.546875 C 3.179688 -5.546875 3.25 -5.539062 3.34375 -5.53125 L 3.34375 -4.578125 C 3.289062 -4.585938 3.238281 -4.59375 3.1875 -4.59375 C 3.144531 -4.59375 3.097656 -4.59375 3.046875 -4.59375 C 2.585938 -4.59375 2.234375 -4.441406 1.984375 -4.140625 C 1.734375 -3.847656 1.609375 -3.507812 1.609375 -3.125 L 1.609375 0 L 0.703125 0 Z M 0.703125 -5.4375 "/>
</g>
<g id="glyph-0-1">
<path d="M 0.671875 -5.4375 L 1.578125 -5.4375 L 1.578125 -4.671875 C 1.796875 -4.941406 1.992188 -5.132812 2.171875 -5.25 C 2.460938 -5.457031 2.800781 -5.5625 3.1875 -5.5625 C 3.625 -5.5625 3.972656 -5.457031 4.234375 -5.25 C 4.390625 -5.125 4.523438 -4.941406 4.640625 -4.703125 C 4.847656 -4.992188 5.085938 -5.207031 5.359375 -5.34375 C 5.628906 -5.488281 5.9375 -5.5625 6.28125 -5.5625 C 7.019531 -5.5625 7.519531 -5.296875 7.78125 -4.765625 C 7.925781 -4.484375 8 -4.101562 8 -3.625 L 8 0 L 7.046875 0 L 7.046875 -3.78125 C 7.046875 -4.144531 6.953125 -4.394531 6.765625 -4.53125 C 6.585938 -4.664062 6.367188 -4.734375 6.109375 -4.734375 C 5.742188 -4.734375 5.429688 -4.613281 5.171875 -4.375 C 4.921875 -4.132812 4.796875 -3.734375 4.796875 -3.171875 L 4.796875 0 L 3.859375 0 L 3.859375 -3.546875 C 3.859375 -3.921875 3.816406 -4.191406 3.734375 -4.359375 C 3.585938 -4.609375 3.328125 -4.734375 2.953125 -4.734375 C 2.609375 -4.734375 2.289062 -4.597656 2 -4.328125 C 1.71875 -4.066406 1.578125 -3.585938 1.578125 -2.890625 L 1.578125 0 L 0.671875 0 Z M 0.671875 -5.4375 "/>
</g>
<g id="glyph-0-2">
<path d="M 2.765625 -5.59375 C 3.378906 -5.59375 3.878906 -5.441406 4.265625 -5.140625 C 4.648438 -4.847656 4.878906 -4.335938 4.953125 -3.609375 L 4.0625 -3.609375 C 4.007812 -3.941406 3.882812 -4.21875 3.6875 -4.4375 C 3.5 -4.664062 3.191406 -4.78125 2.765625 -4.78125 C 2.179688 -4.78125 1.765625 -4.492188 1.515625 -3.921875 C 1.359375 -3.554688 1.28125 -3.101562 1.28125 -2.5625 C 1.28125 -2.019531 1.394531 -1.5625 1.625 -1.1875 C 1.851562 -0.8125 2.210938 -0.625 2.703125 -0.625 C 3.085938 -0.625 3.390625 -0.738281 3.609375 -0.96875 C 3.828125 -1.207031 3.976562 -1.523438 4.0625 -1.921875 L 4.953125 -1.921875 C 4.859375 -1.203125 4.609375 -0.675781 4.203125 -0.34375 C 3.796875 -0.0078125 3.273438 0.15625 2.640625 0.15625 C 1.921875 0.15625 1.347656 -0.101562 0.921875 -0.625 C 0.503906 -1.144531 0.296875 -1.796875 0.296875 -2.578125 C 0.296875 -3.523438 0.523438 -4.265625 0.984375 -4.796875 C 1.453125 -5.328125 2.046875 -5.59375 2.765625 -5.59375 Z M 2.625 -5.578125 Z M 2.625 -5.578125 "/>
</g>
<g id="glyph-0-3">
<path d="M 0.671875 -7.484375 L 1.578125 -7.484375 L 1.578125 -4.703125 C 1.796875 -4.972656 1.992188 -5.164062 2.171875 -5.28125 C 2.460938 -5.476562 2.828125 -5.578125 3.265625 -5.578125 C 4.054688 -5.578125 4.59375 -5.300781 4.875 -4.75 C 5.03125 -4.445312 5.109375 -4.023438 5.109375 -3.484375 L 5.109375 0 L 4.171875 0 L 4.171875 -3.4375 C 4.171875 -3.832031 4.117188 -4.125 4.015625 -4.3125 C 3.847656 -4.601562 3.535156 -4.75 3.078125 -4.75 C 2.703125 -4.75 2.359375 -4.617188 2.046875 -4.359375 C 1.734375 -4.097656 1.578125 -3.609375 1.578125 -2.890625 L 1.578125 0 L 0.671875 0 Z M 0.671875 -7.484375 "/>
</g>
<g id="glyph-0-4">
<path d="M 1.375 -1.453125 C 1.375 -1.179688 1.46875 -0.96875 1.65625 -0.8125 C 1.851562 -0.664062 2.082031 -0.59375 2.34375 -0.59375 C 2.664062 -0.59375 2.976562 -0.664062 3.28125 -0.8125 C 3.789062 -1.0625 4.046875 -1.46875 4.046875 -2.03125 L 4.046875 -2.765625 C 3.929688 -2.691406 3.785156 -2.628906 3.609375 -2.578125 C 3.429688 -2.535156 3.257812 -2.503906 3.09375 -2.484375 L 2.546875 -2.421875 C 2.210938 -2.378906 1.960938 -2.304688 1.796875 -2.203125 C 1.515625 -2.046875 1.375 -1.796875 1.375 -1.453125 Z M 3.59375 -3.296875 C 3.800781 -3.328125 3.941406 -3.414062 4.015625 -3.5625 C 4.046875 -3.644531 4.0625 -3.757812 4.0625 -3.90625 C 4.0625 -4.21875 3.953125 -4.441406 3.734375 -4.578125 C 3.515625 -4.722656 3.195312 -4.796875 2.78125 -4.796875 C 2.300781 -4.796875 1.960938 -4.671875 1.765625 -4.421875 C 1.648438 -4.273438 1.578125 -4.0625 1.546875 -3.78125 L 0.703125 -3.78125 C 0.710938 -4.445312 0.925781 -4.910156 1.34375 -5.171875 C 1.769531 -5.441406 2.257812 -5.578125 2.8125 -5.578125 C 3.445312 -5.578125 3.960938 -5.453125 4.359375 -5.203125 C 4.753906 -4.960938 4.953125 -4.582031 4.953125 -4.0625 L 4.953125 -0.9375 C 4.953125 -0.84375 4.972656 -0.765625 5.015625 -0.703125 C 5.054688 -0.648438 5.140625 -0.625 5.265625 -0.625 C 5.304688 -0.625 5.351562 -0.625 5.40625 -0.625 C 5.457031 -0.632812 5.507812 -0.644531 5.5625 -0.65625 L 5.5625 0.03125 C 5.414062 0.0703125 5.304688 0.09375 5.234375 0.09375 C 5.160156 0.101562 5.0625 0.109375 4.9375 0.109375 C 4.625 0.109375 4.394531 0 4.25 -0.21875 C 4.175781 -0.332031 4.125 -0.5 4.09375 -0.71875 C 3.90625 -0.476562 3.632812 -0.265625 3.28125 -0.078125 C 2.9375 0.0976562 2.554688 0.1875 2.140625 0.1875 C 1.628906 0.1875 1.210938 0.0351562 0.890625 -0.265625 C 0.578125 -0.578125 0.421875 -0.960938 0.421875 -1.421875 C 0.421875 -1.929688 0.578125 -2.320312 0.890625 -2.59375 C 1.203125 -2.875 1.613281 -3.046875 2.125 -3.109375 Z M 2.828125 -5.578125 Z M 2.828125 -5.578125 "/>
</g>
<g id="glyph-0-5">
<path d="M 1.21875 -1.703125 C 1.238281 -1.398438 1.3125 -1.164062 1.4375 -1 C 1.664062 -0.707031 2.066406 -0.5625 2.640625 -0.5625 C 2.984375 -0.5625 3.28125 -0.632812 3.53125 -0.78125 C 3.789062 -0.925781 3.921875 -1.15625 3.921875 -1.46875 C 3.921875 -1.695312 3.816406 -1.875 3.609375 -2 C 3.484375 -2.070312 3.222656 -2.160156 2.828125 -2.265625 L 2.109375 -2.4375 C 1.640625 -2.550781 1.296875 -2.679688 1.078125 -2.828125 C 0.679688 -3.078125 0.484375 -3.421875 0.484375 -3.859375 C 0.484375 -4.367188 0.664062 -4.78125 1.03125 -5.09375 C 1.40625 -5.414062 1.910156 -5.578125 2.546875 -5.578125 C 3.359375 -5.578125 3.945312 -5.335938 4.3125 -4.859375 C 4.539062 -4.554688 4.648438 -4.226562 4.640625 -3.875 L 3.78125 -3.875 C 3.757812 -4.082031 3.6875 -4.269531 3.5625 -4.4375 C 3.351562 -4.675781 2.988281 -4.796875 2.46875 -4.796875 C 2.125 -4.796875 1.863281 -4.726562 1.6875 -4.59375 C 1.507812 -4.46875 1.421875 -4.296875 1.421875 -4.078125 C 1.421875 -3.835938 1.535156 -3.648438 1.765625 -3.515625 C 1.898438 -3.429688 2.101562 -3.351562 2.375 -3.28125 L 2.96875 -3.140625 C 3.625 -2.984375 4.066406 -2.828125 4.296875 -2.671875 C 4.648438 -2.441406 4.828125 -2.078125 4.828125 -1.578125 C 4.828125 -1.085938 4.640625 -0.664062 4.265625 -0.3125 C 3.898438 0.0273438 3.34375 0.203125 2.59375 0.203125 C 1.78125 0.203125 1.207031 0.0195312 0.875 -0.34375 C 0.539062 -0.707031 0.359375 -1.160156 0.328125 -1.703125 Z M 2.5625 -5.578125 Z M 2.5625 -5.578125 "/>
</g>
<g id="glyph-0-6">
<path d="M 1.25 -2.65625 C 1.25 -2.070312 1.367188 -1.582031 1.609375 -1.1875 C 1.859375 -0.800781 2.257812 -0.609375 2.8125 -0.609375 C 3.226562 -0.609375 3.570312 -0.789062 3.84375 -1.15625 C 4.125 -1.519531 4.265625 -2.039062 4.265625 -2.71875 C 4.265625 -3.40625 4.125 -3.910156 3.84375 -4.234375 C 3.5625 -4.566406 3.210938 -4.734375 2.796875 -4.734375 C 2.335938 -4.734375 1.960938 -4.554688 1.671875 -4.203125 C 1.390625 -3.859375 1.25 -3.34375 1.25 -2.65625 Z M 2.625 -5.53125 C 3.039062 -5.53125 3.390625 -5.445312 3.671875 -5.28125 C 3.835938 -5.175781 4.023438 -4.992188 4.234375 -4.734375 L 4.234375 -7.484375 L 5.109375 -7.484375 L 5.109375 0 L 4.28125 0 L 4.28125 -0.75 C 4.070312 -0.414062 3.820312 -0.175781 3.53125 -0.03125 C 3.238281 0.113281 2.90625 0.1875 2.53125 0.1875 C 1.914062 0.1875 1.382812 -0.0664062 0.9375 -0.578125 C 0.5 -1.085938 0.28125 -1.765625 0.28125 -2.609375 C 0.28125 -3.398438 0.484375 -4.082031 0.890625 -4.65625 C 1.296875 -5.238281 1.875 -5.53125 2.625 -5.53125 Z M 2.625 -5.53125 "/>
</g>
<g id="glyph-0-7">
<path d="M 0.671875 -5.421875 L 1.59375 -5.421875 L 1.59375 0 L 0.671875 0 Z M 0.671875 -7.46875 L 1.59375 -7.46875 L 1.59375 -6.421875 L 0.671875 -6.421875 Z M 0.671875 -7.46875 "/>
</g>
<g id="glyph-0-8">
<path d="M 2.9375 -5.5625 C 3.320312 -5.5625 3.695312 -5.46875 4.0625 -5.28125 C 4.425781 -5.101562 4.703125 -4.875 4.890625 -4.59375 C 5.066406 -4.3125 5.1875 -3.988281 5.25 -3.625 C 5.300781 -3.375 5.328125 -2.972656 5.328125 -2.421875 L 1.34375 -2.421875 C 1.363281 -1.867188 1.492188 -1.425781 1.734375 -1.09375 C 1.984375 -0.757812 2.363281 -0.59375 2.875 -0.59375 C 3.351562 -0.59375 3.734375 -0.753906 4.015625 -1.078125 C 4.179688 -1.253906 4.296875 -1.460938 4.359375 -1.703125 L 5.265625 -1.703125 C 5.234375 -1.503906 5.148438 -1.28125 5.015625 -1.03125 C 4.890625 -0.789062 4.742188 -0.59375 4.578125 -0.4375 C 4.296875 -0.164062 3.953125 0.015625 3.546875 0.109375 C 3.328125 0.160156 3.078125 0.1875 2.796875 0.1875 C 2.117188 0.1875 1.539062 -0.0546875 1.0625 -0.546875 C 0.59375 -1.035156 0.359375 -1.722656 0.359375 -2.609375 C 0.359375 -3.484375 0.59375 -4.191406 1.0625 -4.734375 C 1.539062 -5.285156 2.164062 -5.5625 2.9375 -5.5625 Z M 4.390625 -3.15625 C 4.359375 -3.550781 4.273438 -3.867188 4.140625 -4.109375 C 3.890625 -4.546875 3.46875 -4.765625 2.875 -4.765625 C 2.457031 -4.765625 2.101562 -4.613281 1.8125 -4.3125 C 1.53125 -4.007812 1.382812 -3.625 1.375 -3.15625 Z M 2.84375 -5.578125 Z M 2.84375 -5.578125 "/>
</g>
<g id="glyph-0-9">
<path d="M 1.125 -5.4375 L 2.578125 -1.015625 L 4.09375 -5.4375 L 5.09375 -5.4375 L 3.03125 0 L 2.0625 0 L 0.0625 -5.4375 Z M 1.125 -5.4375 "/>
</g>
<g id="glyph-0-10">
<path d="M 0.265625 -0.71875 L 3.484375 -4.625 L 0.5 -4.625 L 0.5 -5.4375 L 4.71875 -5.4375 L 4.71875 -4.6875 L 1.515625 -0.8125 L 4.8125 -0.8125 L 4.8125 0 L 0.265625 0 Z M 2.609375 -5.578125 Z M 2.609375 -5.578125 "/>
</g>
<g id="glyph-0-11">
<path d="M 0.671875 -5.4375 L 1.546875 -5.4375 L 1.546875 -4.671875 C 1.796875 -4.984375 2.066406 -5.207031 2.359375 -5.34375 C 2.648438 -5.488281 2.96875 -5.5625 3.3125 -5.5625 C 4.082031 -5.5625 4.609375 -5.289062 4.890625 -4.75 C 5.035156 -4.457031 5.109375 -4.035156 5.109375 -3.484375 L 5.109375 0 L 4.171875 0 L 4.171875 -3.4375 C 4.171875 -3.757812 4.125 -4.023438 4.03125 -4.234375 C 3.863281 -4.566406 3.566406 -4.734375 3.140625 -4.734375 C 2.921875 -4.734375 2.742188 -4.710938 2.609375 -4.671875 C 2.359375 -4.597656 2.140625 -4.453125 1.953125 -4.234375 C 1.796875 -4.046875 1.691406 -3.859375 1.640625 -3.671875 C 1.597656 -3.484375 1.578125 -3.207031 1.578125 -2.84375 L 1.578125 0 L 0.671875 0 Z M 2.8125 -5.578125 Z M 2.8125 -5.578125 "/>
</g>
<g id="glyph-0-12">
<path d="M 0.859375 -6.96875 L 1.78125 -6.96875 L 1.78125 -5.4375 L 2.640625 -5.4375 L 2.640625 -4.6875 L 1.78125 -4.6875 L 1.78125 -1.140625 C 1.78125 -0.953125 1.84375 -0.828125 1.96875 -0.765625 C 2.039062 -0.722656 2.160156 -0.703125 2.328125 -0.703125 C 2.367188 -0.703125 2.414062 -0.703125 2.46875 -0.703125 C 2.519531 -0.710938 2.578125 -0.71875 2.640625 -0.71875 L 2.640625 0 C 2.535156 0.03125 2.425781 0.0507812 2.3125 0.0625 C 2.207031 0.0820312 2.085938 0.09375 1.953125 0.09375 C 1.523438 0.09375 1.234375 -0.015625 1.078125 -0.234375 C 0.929688 -0.453125 0.859375 -0.738281 0.859375 -1.09375 L 0.859375 -4.6875 L 0.109375 -4.6875 L 0.109375 -5.4375 L 0.859375 -5.4375 Z M 0.859375 -6.96875 "/>
</g>
<g id="glyph-0-13">
<path d="M 0.15625 -5.4375 L 1.34375 -5.4375 L 2.59375 -3.53125 L 3.84375 -5.4375 L 4.96875 -5.421875 L 3.125 -2.796875 L 5.046875 0 L 3.875 0 L 2.53125 -2.046875 L 1.21875 0 L 0.0625 0 L 1.96875 -2.796875 Z M 0.15625 -5.4375 "/>
</g>
<g id="glyph-0-14">
<path d="M 2.59375 -5.53125 C 3.019531 -5.53125 3.390625 -5.425781 3.703125 -5.21875 C 3.878906 -5.101562 4.054688 -4.929688 4.234375 -4.703125 L 4.234375 -5.390625 L 5.078125 -5.390625 L 5.078125 -0.4375 C 5.078125 0.246094 4.976562 0.789062 4.78125 1.1875 C 4.394531 1.925781 3.675781 2.296875 2.625 2.296875 C 2.039062 2.296875 1.546875 2.164062 1.140625 1.90625 C 0.742188 1.644531 0.523438 1.234375 0.484375 0.671875 L 1.40625 0.671875 C 1.445312 0.921875 1.535156 1.109375 1.671875 1.234375 C 1.878906 1.441406 2.203125 1.546875 2.640625 1.546875 C 3.347656 1.546875 3.8125 1.296875 4.03125 0.796875 C 4.15625 0.503906 4.210938 -0.0078125 4.203125 -0.75 C 4.015625 -0.476562 3.789062 -0.273438 3.53125 -0.140625 C 3.28125 -0.00390625 2.941406 0.0625 2.515625 0.0625 C 1.929688 0.0625 1.414062 -0.144531 0.96875 -0.5625 C 0.53125 -0.976562 0.3125 -1.671875 0.3125 -2.640625 C 0.3125 -3.546875 0.53125 -4.253906 0.96875 -4.765625 C 1.414062 -5.273438 1.957031 -5.53125 2.59375 -5.53125 Z M 4.234375 -2.75 C 4.234375 -3.414062 4.09375 -3.910156 3.8125 -4.234375 C 3.539062 -4.566406 3.191406 -4.734375 2.765625 -4.734375 C 2.117188 -4.734375 1.675781 -4.429688 1.4375 -3.828125 C 1.3125 -3.503906 1.25 -3.082031 1.25 -2.5625 C 1.25 -1.945312 1.375 -1.476562 1.625 -1.15625 C 1.875 -0.84375 2.207031 -0.6875 2.625 -0.6875 C 3.28125 -0.6875 3.742188 -0.976562 4.015625 -1.5625 C 4.160156 -1.90625 4.234375 -2.300781 4.234375 -2.75 Z M 2.703125 -5.578125 Z M 2.703125 -5.578125 "/>
</g>
<g id="glyph-0-15">
<path d="M 1.578125 -5.4375 L 1.578125 -1.828125 C 1.578125 -1.546875 1.625 -1.316406 1.71875 -1.140625 C 1.882812 -0.816406 2.1875 -0.65625 2.625 -0.65625 C 3.257812 -0.65625 3.691406 -0.941406 3.921875 -1.515625 C 4.046875 -1.816406 4.109375 -2.234375 4.109375 -2.765625 L 4.109375 -5.4375 L 5.03125 -5.4375 L 5.03125 0 L 4.171875 0 L 4.171875 -0.796875 C 4.054688 -0.597656 3.910156 -0.425781 3.734375 -0.28125 C 3.390625 0 2.96875 0.140625 2.46875 0.140625 C 1.6875 0.140625 1.15625 -0.113281 0.875 -0.625 C 0.726562 -0.90625 0.65625 -1.28125 0.65625 -1.75 L 0.65625 -5.4375 Z M 2.84375 -5.578125 Z M 2.84375 -5.578125 "/>
</g>
<g id="glyph-0-16">
<path d="M 0.703125 -7.46875 L 1.609375 -7.46875 L 1.609375 0 L 0.703125 0 Z M 0.703125 -7.46875 "/>
</g>
<g id="glyph-0-17">
<path d="M 2.96875 -0.609375 C 3.394531 -0.609375 3.75 -0.785156 4.03125 -1.140625 C 4.3125 -1.503906 4.453125 -2.039062 4.453125 -2.75 C 4.453125 -3.1875 4.390625 -3.5625 4.265625 -3.875 C 4.023438 -4.46875 3.59375 -4.765625 2.96875 -4.765625 C 2.332031 -4.765625 1.898438 -4.453125 1.671875 -3.828125 C 1.546875 -3.484375 1.484375 -3.050781 1.484375 -2.53125 C 1.484375 -2.113281 1.546875 -1.753906 1.671875 -1.453125 C 1.898438 -0.890625 2.332031 -0.609375 2.96875 -0.609375 Z M 0.59375 -5.421875 L 1.484375 -5.421875 L 1.484375 -4.6875 C 1.671875 -4.9375 1.875 -5.128906 2.09375 -5.265625 C 2.394531 -5.472656 2.753906 -5.578125 3.171875 -5.578125 C 3.785156 -5.578125 4.304688 -5.335938 4.734375 -4.859375 C 5.171875 -4.390625 5.390625 -3.71875 5.390625 -2.84375 C 5.390625 -1.65625 5.082031 -0.804688 4.46875 -0.296875 C 4.070312 0.0234375 3.613281 0.1875 3.09375 0.1875 C 2.675781 0.1875 2.332031 0.0898438 2.0625 -0.09375 C 1.894531 -0.1875 1.710938 -0.359375 1.515625 -0.609375 L 1.515625 2.171875 L 0.59375 2.171875 Z M 0.59375 -5.421875 "/>
</g>
<g id="glyph-0-18">
<path d="M 2.828125 -0.59375 C 3.429688 -0.59375 3.847656 -0.820312 4.078125 -1.28125 C 4.304688 -1.738281 4.421875 -2.25 4.421875 -2.8125 C 4.421875 -3.320312 4.335938 -3.734375 4.171875 -4.046875 C 3.910156 -4.546875 3.46875 -4.796875 2.84375 -4.796875 C 2.28125 -4.796875 1.867188 -4.582031 1.609375 -4.15625 C 1.359375 -3.726562 1.234375 -3.210938 1.234375 -2.609375 C 1.234375 -2.035156 1.359375 -1.554688 1.609375 -1.171875 C 1.867188 -0.785156 2.273438 -0.59375 2.828125 -0.59375 Z M 2.859375 -5.59375 C 3.566406 -5.59375 4.160156 -5.359375 4.640625 -4.890625 C 5.128906 -4.429688 5.375 -3.742188 5.375 -2.828125 C 5.375 -1.953125 5.160156 -1.226562 4.734375 -0.65625 C 4.304688 -0.0820312 3.644531 0.203125 2.75 0.203125 C 2 0.203125 1.398438 -0.0507812 0.953125 -0.5625 C 0.515625 -1.070312 0.296875 -1.753906 0.296875 -2.609375 C 0.296875 -3.515625 0.523438 -4.238281 0.984375 -4.78125 C 1.453125 -5.320312 2.078125 -5.59375 2.859375 -5.59375 Z M 2.828125 -5.578125 Z M 2.828125 -5.578125 "/>
</g>
<g id="glyph-0-19">
<path d="M 2.8125 -7.28125 C 3.757812 -7.28125 4.441406 -6.890625 4.859375 -6.109375 C 5.179688 -5.515625 5.34375 -4.691406 5.34375 -3.640625 C 5.34375 -2.660156 5.195312 -1.84375 4.90625 -1.1875 C 4.476562 -0.257812 3.78125 0.203125 2.8125 0.203125 C 1.9375 0.203125 1.285156 -0.175781 0.859375 -0.9375 C 0.503906 -1.570312 0.328125 -2.421875 0.328125 -3.484375 C 0.328125 -4.316406 0.429688 -5.03125 0.640625 -5.625 C 1.046875 -6.726562 1.769531 -7.28125 2.8125 -7.28125 Z M 2.8125 -0.640625 C 3.28125 -0.640625 3.65625 -0.847656 3.9375 -1.265625 C 4.21875 -1.679688 4.359375 -2.460938 4.359375 -3.609375 C 4.359375 -4.441406 4.253906 -5.125 4.046875 -5.65625 C 3.847656 -6.1875 3.457031 -6.453125 2.875 -6.453125 C 2.332031 -6.453125 1.9375 -6.195312 1.6875 -5.6875 C 1.4375 -5.1875 1.3125 -4.441406 1.3125 -3.453125 C 1.3125 -2.710938 1.394531 -2.117188 1.5625 -1.671875 C 1.800781 -0.984375 2.21875 -0.640625 2.8125 -0.640625 Z M 2.8125 -0.640625 "/>
</g>
<g id="glyph-0-20">
<path d="M 1 -5.15625 L 1 -5.859375 C 1.65625 -5.921875 2.113281 -6.023438 2.375 -6.171875 C 2.632812 -6.328125 2.832031 -6.6875 2.96875 -7.25 L 3.6875 -7.25 L 3.6875 0 L 2.703125 0 L 2.703125 -5.15625 Z M 1 -5.15625 "/>
</g>
<g id="glyph-0-21">
<path d="M 0.328125 0 C 0.359375 -0.625 0.484375 -1.164062 0.703125 -1.625 C 0.929688 -2.09375 1.375 -2.519531 2.03125 -2.90625 L 3.015625 -3.46875 C 3.441406 -3.71875 3.742188 -3.929688 3.921875 -4.109375 C 4.203125 -4.390625 4.34375 -4.710938 4.34375 -5.078125 C 4.34375 -5.503906 4.210938 -5.84375 3.953125 -6.09375 C 3.703125 -6.34375 3.367188 -6.46875 2.953125 -6.46875 C 2.316406 -6.46875 1.878906 -6.226562 1.640625 -5.75 C 1.515625 -5.5 1.445312 -5.144531 1.4375 -4.6875 L 0.5 -4.6875 C 0.507812 -5.320312 0.628906 -5.84375 0.859375 -6.25 C 1.253906 -6.945312 1.953125 -7.296875 2.953125 -7.296875 C 3.785156 -7.296875 4.394531 -7.070312 4.78125 -6.625 C 5.164062 -6.175781 5.359375 -5.675781 5.359375 -5.125 C 5.359375 -4.539062 5.148438 -4.039062 4.734375 -3.625 C 4.503906 -3.382812 4.082031 -3.09375 3.46875 -2.75 L 2.765625 -2.375 C 2.429688 -2.1875 2.171875 -2.007812 1.984375 -1.84375 C 1.648438 -1.550781 1.4375 -1.222656 1.34375 -0.859375 L 5.3125 -0.859375 L 5.3125 0 Z M 0.328125 0 "/>
</g>
<g id="glyph-0-22">
<path d="M 2.703125 0.203125 C 1.835938 0.203125 1.210938 -0.03125 0.828125 -0.5 C 0.441406 -0.976562 0.25 -1.554688 0.25 -2.234375 L 1.203125 -2.234375 C 1.242188 -1.765625 1.332031 -1.421875 1.46875 -1.203125 C 1.707031 -0.828125 2.132812 -0.640625 2.75 -0.640625 C 3.226562 -0.640625 3.613281 -0.765625 3.90625 -1.015625 C 4.195312 -1.273438 4.34375 -1.609375 4.34375 -2.015625 C 4.34375 -2.515625 4.191406 -2.863281 3.890625 -3.0625 C 3.585938 -3.269531 3.160156 -3.375 2.609375 -3.375 C 2.546875 -3.375 2.484375 -3.367188 2.421875 -3.359375 C 2.359375 -3.359375 2.296875 -3.359375 2.234375 -3.359375 L 2.234375 -4.171875 C 2.328125 -4.160156 2.40625 -4.148438 2.46875 -4.140625 C 2.539062 -4.140625 2.613281 -4.140625 2.6875 -4.140625 C 3.03125 -4.140625 3.3125 -4.191406 3.53125 -4.296875 C 3.914062 -4.492188 4.109375 -4.832031 4.109375 -5.3125 C 4.109375 -5.675781 3.976562 -5.957031 3.71875 -6.15625 C 3.457031 -6.351562 3.15625 -6.453125 2.8125 -6.453125 C 2.207031 -6.453125 1.789062 -6.25 1.5625 -5.84375 C 1.425781 -5.625 1.351562 -5.304688 1.34375 -4.890625 L 0.4375 -4.890625 C 0.4375 -5.429688 0.539062 -5.890625 0.75 -6.265625 C 1.125 -6.941406 1.78125 -7.28125 2.71875 -7.28125 C 3.46875 -7.28125 4.046875 -7.113281 4.453125 -6.78125 C 4.859375 -6.457031 5.0625 -5.984375 5.0625 -5.359375 C 5.0625 -4.910156 4.9375 -4.546875 4.6875 -4.265625 C 4.539062 -4.097656 4.347656 -3.960938 4.109375 -3.859375 C 4.492188 -3.753906 4.789062 -3.550781 5 -3.25 C 5.21875 -2.957031 5.328125 -2.59375 5.328125 -2.15625 C 5.328125 -1.457031 5.097656 -0.890625 4.640625 -0.453125 C 4.191406 -0.015625 3.546875 0.203125 2.703125 0.203125 Z M 2.703125 0.203125 "/>
</g>
<g id="glyph-1-0">
<path d="M 0.421875 0 L 0.421875 -9.328125 L 7.828125 -9.328125 L 7.828125 0 Z M 6.65625 -1.171875 L 6.65625 -8.15625 L 1.59375 -8.15625 L 1.59375 -1.171875 Z M 6.65625 -1.171875 "/>
</g>
<g id="glyph-1-1">
</g>
<g id="glyph-2-0">
<path d="M 1.5 -7.71875 L 1.5 -8.765625 C 2.488281 -8.867188 3.175781 -9.03125 3.5625 -9.25 C 3.957031 -9.476562 4.25 -10.015625 4.4375 -10.859375 L 5.515625 -10.859375 L 5.515625 0 L 4.0625 0 L 4.0625 -7.71875 Z M 1.5 -7.71875 "/>
</g>
<g id="glyph-2-1">
<path d="M 0.484375 0 C 0.535156 -0.9375 0.726562 -1.753906 1.0625 -2.453125 C 1.40625 -3.148438 2.066406 -3.78125 3.046875 -4.34375 L 4.5 -5.1875 C 5.15625 -5.570312 5.617188 -5.898438 5.890625 -6.171875 C 6.304688 -6.585938 6.515625 -7.066406 6.515625 -7.609375 C 6.515625 -8.242188 6.320312 -8.75 5.9375 -9.125 C 5.5625 -9.5 5.054688 -9.6875 4.421875 -9.6875 C 3.472656 -9.6875 2.820312 -9.332031 2.46875 -8.625 C 2.269531 -8.238281 2.160156 -7.707031 2.140625 -7.03125 L 0.75 -7.03125 C 0.769531 -7.976562 0.945312 -8.753906 1.28125 -9.359375 C 1.875 -10.410156 2.921875 -10.9375 4.421875 -10.9375 C 5.671875 -10.9375 6.582031 -10.597656 7.15625 -9.921875 C 7.738281 -9.253906 8.03125 -8.503906 8.03125 -7.671875 C 8.03125 -6.796875 7.722656 -6.050781 7.109375 -5.4375 C 6.753906 -5.070312 6.113281 -4.632812 5.1875 -4.125 L 4.15625 -3.546875 C 3.65625 -3.273438 3.265625 -3.015625 2.984375 -2.765625 C 2.472656 -2.316406 2.148438 -1.828125 2.015625 -1.296875 L 7.96875 -1.296875 L 7.96875 0 Z M 0.484375 0 "/>
</g>
<g id="glyph-2-2">
<path d="M 0.5 0 L 0.5 -11.1875 L 9.375 -11.1875 L 9.375 0 Z M 7.984375 -1.40625 L 7.984375 -9.78125 L 1.90625 -9.78125 L 1.90625 -1.40625 Z M 7.984375 -1.40625 "/>
</g>
<g id="glyph-2-3">
</g>
<g id="glyph-2-4">
<path d="M 2.078125 -2.640625 C 2.109375 -1.878906 2.398438 -1.351562 2.953125 -1.0625 C 3.222656 -0.914062 3.535156 -0.84375 3.890625 -0.84375 C 4.546875 -0.84375 5.101562 -1.113281 5.5625 -1.65625 C 6.03125 -2.195312 6.359375 -3.304688 6.546875 -4.984375 C 6.242188 -4.492188 5.867188 -4.148438 5.421875 -3.953125 C 4.972656 -3.765625 4.488281 -3.671875 3.96875 -3.671875 C 2.914062 -3.671875 2.082031 -4 1.46875 -4.65625 C 0.863281 -5.3125 0.5625 -6.15625 0.5625 -7.1875 C 0.5625 -8.175781 0.863281 -9.046875 1.46875 -9.796875 C 2.070312 -10.546875 2.960938 -10.921875 4.140625 -10.921875 C 5.722656 -10.921875 6.816406 -10.203125 7.421875 -8.765625 C 7.753906 -7.984375 7.921875 -7 7.921875 -5.8125 C 7.921875 -4.476562 7.722656 -3.296875 7.328125 -2.265625 C 6.660156 -0.554688 5.53125 0.296875 3.9375 0.296875 C 2.875 0.296875 2.066406 0.0195312 1.515625 -0.53125 C 0.960938 -1.09375 0.6875 -1.796875 0.6875 -2.640625 Z M 4.15625 -4.875 C 4.695312 -4.875 5.191406 -5.050781 5.640625 -5.40625 C 6.085938 -5.769531 6.3125 -6.394531 6.3125 -7.28125 C 6.3125 -8.082031 6.109375 -8.679688 5.703125 -9.078125 C 5.296875 -9.472656 4.785156 -9.671875 4.171875 -9.671875 C 3.492188 -9.671875 2.957031 -9.445312 2.5625 -9 C 2.175781 -8.550781 1.984375 -7.953125 1.984375 -7.203125 C 1.984375 -6.484375 2.15625 -5.914062 2.5 -5.5 C 2.84375 -5.082031 3.394531 -4.875 4.15625 -4.875 Z M 4.15625 -4.875 "/>
</g>
<g id="glyph-2-5">
<path d="M 1.921875 -2.78125 C 2.015625 -2 2.378906 -1.457031 3.015625 -1.15625 C 3.335938 -1 3.710938 -0.921875 4.140625 -0.921875 C 4.953125 -0.921875 5.550781 -1.179688 5.9375 -1.703125 C 6.332031 -2.222656 6.53125 -2.796875 6.53125 -3.421875 C 6.53125 -4.179688 6.296875 -4.769531 5.828125 -5.1875 C 5.367188 -5.601562 4.816406 -5.8125 4.171875 -5.8125 C 3.691406 -5.8125 3.28125 -5.71875 2.9375 -5.53125 C 2.601562 -5.351562 2.320312 -5.101562 2.09375 -4.78125 L 0.90625 -4.84375 L 1.734375 -10.71875 L 7.390625 -10.71875 L 7.390625 -9.390625 L 2.75 -9.390625 L 2.296875 -6.359375 C 2.546875 -6.554688 2.785156 -6.703125 3.015625 -6.796875 C 3.421875 -6.960938 3.890625 -7.046875 4.421875 -7.046875 C 5.421875 -7.046875 6.269531 -6.722656 6.96875 -6.078125 C 7.664062 -5.429688 8.015625 -4.613281 8.015625 -3.625 C 8.015625 -2.601562 7.691406 -1.695312 7.046875 -0.90625 C 6.410156 -0.113281 5.394531 0.28125 4 0.28125 C 3.113281 0.28125 2.328125 0.0273438 1.640625 -0.46875 C 0.960938 -0.96875 0.582031 -1.738281 0.5 -2.78125 Z M 1.921875 -2.78125 "/>
</g>
<g id="glyph-2-6">
<path d="M 10.625 -5.296875 C 11.351562 -5.296875 11.976562 -5.035156 12.5 -4.515625 C 13.019531 -4.003906 13.28125 -3.382812 13.28125 -2.65625 C 13.28125 -1.914062 13.019531 -1.285156 12.5 -0.765625 C 11.976562 -0.253906 11.351562 0 10.625 0 C 9.894531 0 9.269531 -0.253906 8.75 -0.765625 C 8.226562 -1.285156 7.96875 -1.914062 7.96875 -2.65625 C 7.96875 -3.382812 8.226562 -4.003906 8.75 -4.515625 C 9.269531 -5.035156 9.894531 -5.296875 10.625 -5.296875 Z M 9.53125 -10.859375 L 10.375 -10.859375 L 4.265625 0.296875 L 3.421875 0.296875 Z M 3.15625 -6.34375 C 3.59375 -6.34375 3.960938 -6.492188 4.265625 -6.796875 C 4.578125 -7.109375 4.734375 -7.484375 4.734375 -7.921875 C 4.734375 -8.347656 4.578125 -8.710938 4.265625 -9.015625 C 3.960938 -9.328125 3.59375 -9.484375 3.15625 -9.484375 C 2.71875 -9.484375 2.34375 -9.332031 2.03125 -9.03125 C 1.726562 -8.726562 1.578125 -8.359375 1.578125 -7.921875 C 1.578125 -7.484375 1.726562 -7.109375 2.03125 -6.796875 C 2.34375 -6.492188 2.71875 -6.34375 3.15625 -6.34375 Z M 3.15625 -10.578125 C 3.882812 -10.578125 4.507812 -10.316406 5.03125 -9.796875 C 5.550781 -9.273438 5.8125 -8.648438 5.8125 -7.921875 C 5.8125 -7.191406 5.550781 -6.566406 5.03125 -6.046875 C 4.507812 -5.523438 3.882812 -5.265625 3.15625 -5.265625 C 2.425781 -5.265625 1.800781 -5.523438 1.28125 -6.046875 C 0.757812 -6.566406 0.5 -7.191406 0.5 -7.921875 C 0.5 -8.648438 0.757812 -9.273438 1.28125 -9.796875 C 1.800781 -10.316406 2.425781 -10.578125 3.15625 -10.578125 Z M 10.625 -1.078125 C 11.0625 -1.078125 11.429688 -1.226562 11.734375 -1.53125 C 12.046875 -1.84375 12.203125 -2.21875 12.203125 -2.65625 C 12.203125 -3.082031 12.046875 -3.445312 11.734375 -3.75 C 11.429688 -4.0625 11.0625 -4.21875 10.625 -4.21875 C 10.1875 -4.21875 9.8125 -4.0625 9.5 -3.75 C 9.195312 -3.445312 9.046875 -3.082031 9.046875 -2.65625 C 9.046875 -2.21875 9.195312 -1.84375 9.5 -1.53125 C 9.8125 -1.226562 10.1875 -1.078125 10.625 -1.078125 Z M 10.625 -1.078125 "/>
</g>
</g>
<clipPath id="clip-0">
<path clip-rule="nonzero" d="M 66 27.589844 L 67 27.589844 L 67 408.496094 L 66 408.496094 Z M 66 27.589844 "/>
</clipPath>
<clipPath id="clip-1">
<path clip-rule="nonzero" d="M 196 27.589844 L 197 27.589844 L 197 408.496094 L 196 408.496094 Z M 196 27.589844 "/>
</clipPath>
<clipPath id="clip-2">
<path clip-rule="nonzero" d="M 326 27.589844 L 327 27.589844 L 327 408.496094 L 326 408.496094 Z M 326 27.589844 "/>
</clipPath>
<clipPath id="clip-3">
<path clip-rule="nonzero" d="M 456 27.589844 L 457 27.589844 L 457 408.496094 L 456 408.496094 Z M 456 27.589844 "/>
</clipPath>
<clipPath id="clip-4">
<path clip-rule="nonzero" d="M 586 27.589844 L 587 27.589844 L 587 408.496094 L 586 408.496094 Z M 586 27.589844 "/>
</clipPath>
<clipPath id="clip-5">
<path clip-rule="nonzero" d="M 41.207031 389 L 641.523438 389 L 641.523438 391 L 41.207031 391 Z M 41.207031 389 "/>
</clipPath>
<clipPath id="clip-6">
<path clip-rule="nonzero" d="M 41.207031 357 L 641.523438 357 L 641.523438 360 L 41.207031 360 Z M 41.207031 357 "/>
</clipPath>
<clipPath id="clip-7">
<path clip-rule="nonzero" d="M 41.207031 326 L 641.523438 326 L 641.523438 328 L 41.207031 328 Z M 41.207031 326 "/>
</clipPath>
<clipPath id="clip-8">
<path clip-rule="nonzero" d="M 41.207031 295 L 641.523438 295 L 641.523438 297 L 41.207031 297 Z M 41.207031 295 "/>
</clipPath>
<clipPath id="clip-9">
<path clip-rule="nonzero" d="M 41.207031 264 L 641.523438 264 L 641.523438 266 L 41.207031 266 Z M 41.207031 264 "/>
</clipPath>
<clipPath id="clip-10">
<path clip-rule="nonzero" d="M 41.207031 233 L 641.523438 233 L 641.523438 235 L 41.207031 235 Z M 41.207031 233 "/>
</clipPath>
<clipPath id="clip-11">
<path clip-rule="nonzero" d="M 41.207031 201 L 641.523438 201 L 641.523438 204 L 41.207031 204 Z M 41.207031 201 "/>
</clipPath>
<clipPath id="clip-12">
<path clip-rule="nonzero" d="M 41.207031 170 L 641.523438 170 L 641.523438 172 L 41.207031 172 Z M 41.207031 170 "/>
</clipPath>
<clipPath id="clip-13">
<path clip-rule="nonzero" d="M 41.207031 139 L 641.523438 139 L 641.523438 141 L 41.207031 141 Z M 41.207031 139 "/>
</clipPath>
<clipPath id="clip-14">
<path clip-rule="nonzero" d="M 41.207031 108 L 641.523438 108 L 641.523438 110 L 41.207031 110 Z M 41.207031 108 "/>
</clipPath>
<clipPath id="clip-15">
<path clip-rule="nonzero" d="M 41.207031 76 L 641.523438 76 L 641.523438 79 L 41.207031 79 Z M 41.207031 76 "/>
</clipPath>
<clipPath id="clip-16">
<path clip-rule="nonzero" d="M 41.207031 45 L 641.523438 45 L 641.523438 47 L 41.207031 47 Z M 41.207031 45 "/>
</clipPath>
<clipPath id="clip-17">
<path clip-rule="nonzero" d="M 130 27.589844 L 133 27.589844 L 133 408.496094 L 130 408.496094 Z M 130 27.589844 "/>
</clipPath>
<clipPath id="clip-18">
<path clip-rule="nonzero" d="M 260 27.589844 L 263 27.589844 L 263 408.496094 L 260 408.496094 Z M 260 27.589844 "/>
</clipPath>
<clipPath id="clip-19">
<path clip-rule="nonzero" d="M 390 27.589844 L 393 27.589844 L 393 408.496094 L 390 408.496094 Z M 390 27.589844 "/>
</clipPath>
<clipPath id="clip-20">
<path clip-rule="nonzero" d="M 520 27.589844 L 523 27.589844 L 523 408.496094 L 520 408.496094 Z M 520 27.589844 "/>
</clipPath>
<clipPath id="clip-21">
<path clip-rule="nonzero" d="M 130 27.589844 L 133 27.589844 L 133 408.496094 L 130 408.496094 Z M 130 27.589844 "/>
</clipPath>
</defs>
<rect x="-64.8" y="-44.6" width="777.6" height="535.2" fill="rgb(100%, 100%, 100%)" fill-opacity="1"/>
<g clip-path="url(#clip-0)">
<path fill="none" stroke-width="0.630487" stroke-linecap="butt" stroke-linejoin="round" stroke="rgb(92.156863%, 92.156863%, 92.156863%)" stroke-opacity="1" stroke-miterlimit="10" d="M 66.570312 408.496094 L 66.570312 27.589844 "/>
</g>
<g clip-path="url(#clip-1)">
<path fill="none" stroke-width="0.630487" stroke-linecap="butt" stroke-linejoin="round" stroke="rgb(92.156863%, 92.156863%, 92.156863%)" stroke-opacity="1" stroke-miterlimit="10" d="M 196.53125 408.496094 L 196.53125 27.589844 "/>
</g>
<g clip-path="url(#clip-2)">
<path fill="none" stroke-width="0.630487" stroke-linecap="butt" stroke-linejoin="round" stroke="rgb(92.156863%, 92.156863%, 92.156863%)" stroke-opacity="1" stroke-miterlimit="10" d="M 326.492188 408.496094 L 326.492188 27.589844 "/>
</g>
<g clip-path="url(#clip-3)">
<path fill="none" stroke-width="0.630487" stroke-linecap="butt" stroke-linejoin="round" stroke="rgb(92.156863%, 92.156863%, 92.156863%)" stroke-opacity="1" stroke-miterlimit="10" d="M 456.453125 408.496094 L 456.453125 27.589844 "/>
</g>
<g clip-path="url(#clip-4)">
<path fill="none" stroke-width="0.630487" stroke-linecap="butt" stroke-linejoin="round" stroke="rgb(92.156863%, 92.156863%, 92.156863%)" stroke-opacity="1" stroke-miterlimit="10" d="M 586.414062 408.496094 L 586.414062 27.589844 "/>
</g>
<g clip-path="url(#clip-5)">
<path fill="none" stroke-width="1.260974" stroke-linecap="butt" stroke-linejoin="round" stroke="rgb(92.156863%, 92.156863%, 92.156863%)" stroke-opacity="1" stroke-miterlimit="10" d="M 41.207031 389.765625 L 641.523438 389.765625 "/>
</g>
<g clip-path="url(#clip-6)">
<path fill="none" stroke-width="1.260974" stroke-linecap="butt" stroke-linejoin="round" stroke="rgb(92.156863%, 92.156863%, 92.156863%)" stroke-opacity="1" stroke-miterlimit="10" d="M 41.207031 358.542969 L 641.523438 358.542969 "/>
</g>
<g clip-path="url(#clip-7)">
<path fill="none" stroke-width="1.260974" stroke-linecap="butt" stroke-linejoin="round" stroke="rgb(92.156863%, 92.156863%, 92.156863%)" stroke-opacity="1" stroke-miterlimit="10" d="M 41.207031 327.320312 L 641.523438 327.320312 "/>
</g>
<g clip-path="url(#clip-8)">
<path fill="none" stroke-width="1.260974" stroke-linecap="butt" stroke-linejoin="round" stroke="rgb(92.156863%, 92.156863%, 92.156863%)" stroke-opacity="1" stroke-miterlimit="10" d="M 41.207031 296.097656 L 641.523438 296.097656 "/>
</g>
<g clip-path="url(#clip-9)">
<path fill="none" stroke-width="1.260974" stroke-linecap="butt" stroke-linejoin="round" stroke="rgb(92.156863%, 92.156863%, 92.156863%)" stroke-opacity="1" stroke-miterlimit="10" d="M 41.207031 264.878906 L 641.523438 264.878906 "/>
</g>
<g clip-path="url(#clip-10)">
<path fill="none" stroke-width="1.260974" stroke-linecap="butt" stroke-linejoin="round" stroke="rgb(92.156863%, 92.156863%, 92.156863%)" stroke-opacity="1" stroke-miterlimit="10" d="M 41.207031 233.65625 L 641.523438 233.65625 "/>
</g>
<g clip-path="url(#clip-11)">
<path fill="none" stroke-width="1.260974" stroke-linecap="butt" stroke-linejoin="round" stroke="rgb(92.156863%, 92.156863%, 92.156863%)" stroke-opacity="1" stroke-miterlimit="10" d="M 41.207031 202.433594 L 641.523438 202.433594 "/>
</g>
<g clip-path="url(#clip-12)">
<path fill="none" stroke-width="1.260974" stroke-linecap="butt" stroke-linejoin="round" stroke="rgb(92.156863%, 92.156863%, 92.156863%)" stroke-opacity="1" stroke-miterlimit="10" d="M 41.207031 171.210938 L 641.523438 171.210938 "/>
</g>
<g clip-path="url(#clip-13)">
<path fill="none" stroke-width="1.260974" stroke-linecap="butt" stroke-linejoin="round" stroke="rgb(92.156863%, 92.156863%, 92.156863%)" stroke-opacity="1" stroke-miterlimit="10" d="M 41.207031 139.992188 L 641.523438 139.992188 "/>
</g>
<g clip-path="url(#clip-14)">
<path fill="none" stroke-width="1.260974" stroke-linecap="butt" stroke-linejoin="round" stroke="rgb(92.156863%, 92.156863%, 92.156863%)" stroke-opacity="1" stroke-miterlimit="10" d="M 41.207031 108.769531 L 641.523438 108.769531 "/>
</g>
<g clip-path="url(#clip-15)">
<path fill="none" stroke-width="1.260974" stroke-linecap="butt" stroke-linejoin="round" stroke="rgb(92.156863%, 92.156863%, 92.156863%)" stroke-opacity="1" stroke-miterlimit="10" d="M 41.207031 77.546875 L 641.523438 77.546875 "/>
</g>
<g clip-path="url(#clip-16)">
<path fill="none" stroke-width="1.260974" stroke-linecap="butt" stroke-linejoin="round" stroke="rgb(92.156863%, 92.156863%, 92.156863%)" stroke-opacity="1" stroke-miterlimit="10" d="M 41.207031 46.324219 L 641.523438 46.324219 "/>
</g>
<g clip-path="url(#clip-17)">
<path fill="none" stroke-width="1.260974" stroke-linecap="butt" stroke-linejoin="round" stroke="rgb(92.156863%, 92.156863%, 92.156863%)" stroke-opacity="1" stroke-miterlimit="10" d="M 131.550781 408.496094 L 131.550781 27.589844 "/>
</g>
<g clip-path="url(#clip-18)">
<path fill="none" stroke-width="1.260974" stroke-linecap="butt" stroke-linejoin="round" stroke="rgb(92.156863%, 92.156863%, 92.156863%)" stroke-opacity="1" stroke-miterlimit="10" d="M 261.511719 408.496094 L 261.511719 27.589844 "/>
</g>
<g clip-path="url(#clip-19)">
<path fill="none" stroke-width="1.260974" stroke-linecap="butt" stroke-linejoin="round" stroke="rgb(92.156863%, 92.156863%, 92.156863%)" stroke-opacity="1" stroke-miterlimit="10" d="M 391.472656 408.496094 L 391.472656 27.589844 "/>
</g>
<g clip-path="url(#clip-20)">
<path fill="none" stroke-width="1.260974" stroke-linecap="butt" stroke-linejoin="round" stroke="rgb(92.156863%, 92.156863%, 92.156863%)" stroke-opacity="1" stroke-miterlimit="10" d="M 521.433594 408.496094 L 521.433594 27.589844 "/>
</g>
<g clip-path="url(#clip-21)">
<path fill="none" stroke-width="1.260974" stroke-linecap="butt" stroke-linejoin="round" stroke="rgb(46.666667%, 46.666667%, 46.666667%)" stroke-opacity="1" stroke-miterlimit="10" d="M 131.550781 408.496094 L 131.550781 27.589844 "/>
</g>
<path fill="none" stroke-width="1.260974" stroke-linecap="butt" stroke-linejoin="round" stroke="rgb(14.117647%, 34.117647%, 65.490196%)" stroke-opacity="1" stroke-miterlimit="10" d="M 131 267.21875 L 131 262.535156 "/>
<path fill="none" stroke-width="1.260974" stroke-linecap="butt" stroke-linejoin="round" stroke="rgb(14.117647%, 34.117647%, 65.490196%)" stroke-opacity="1" stroke-miterlimit="10" d="M 131 264.878906 L 130.179688 264.878906 "/>
<path fill="none" stroke-width="1.260974" stroke-linecap="butt" stroke-linejoin="round" stroke="rgb(14.117647%, 34.117647%, 65.490196%)" stroke-opacity="1" stroke-miterlimit="10" d="M 130.179688 267.21875 L 130.179688 262.535156 "/>
<path fill="none" stroke-width="1.260974" stroke-linecap="butt" stroke-linejoin="round" stroke="rgb(14.117647%, 34.117647%, 65.490196%)" stroke-opacity="1" stroke-miterlimit="10" d="M 139.476562 173.554688 L 139.476562 168.871094 "/>
<path fill="none" stroke-width="1.260974" stroke-linecap="butt" stroke-linejoin="round" stroke="rgb(14.117647%, 34.117647%, 65.490196%)" stroke-opacity="1" stroke-miterlimit="10" d="M 139.476562 171.210938 L 136.871094 171.210938 "/>
<path fill="none" stroke-width="1.260974" stroke-linecap="butt" stroke-linejoin="round" stroke="rgb(14.117647%, 34.117647%, 65.490196%)" stroke-opacity="1" stroke-miterlimit="10" d="M 136.871094 173.554688 L 136.871094 168.871094 "/>
<path fill="none" stroke-width="1.260974" stroke-linecap="butt" stroke-linejoin="round" stroke="rgb(14.117647%, 34.117647%, 65.490196%)" stroke-opacity="1" stroke-miterlimit="10" d="M 145.40625 360.882812 L 145.40625 356.203125 "/>
<path fill="none" stroke-width="1.260974" stroke-linecap="butt" stroke-linejoin="round" stroke="rgb(14.117647%, 34.117647%, 65.490196%)" stroke-opacity="1" stroke-miterlimit="10" d="M 145.40625 358.542969 L 68.496094 358.542969 "/>
<path fill="none" stroke-width="1.260974" stroke-linecap="butt" stroke-linejoin="round" stroke="rgb(14.117647%, 34.117647%, 65.490196%)" stroke-opacity="1" stroke-miterlimit="10" d="M 68.496094 360.882812 L 68.496094 356.203125 "/>
<path fill="none" stroke-width="1.260974" stroke-linecap="butt" stroke-linejoin="round" stroke="rgb(14.117647%, 34.117647%, 65.490196%)" stroke-opacity="1" stroke-miterlimit="10" d="M 614.238281 48.667969 L 614.238281 43.984375 "/>
<path fill="none" stroke-width="1.260974" stroke-linecap="butt" stroke-linejoin="round" stroke="rgb(14.117647%, 34.117647%, 65.490196%)" stroke-opacity="1" stroke-miterlimit="10" d="M 614.238281 46.324219 L 461.078125 46.324219 "/>
<path fill="none" stroke-width="1.260974" stroke-linecap="butt" stroke-linejoin="round" stroke="rgb(14.117647%, 34.117647%, 65.490196%)" stroke-opacity="1" stroke-miterlimit="10" d="M 461.078125 48.667969 L 461.078125 43.984375 "/>
<path fill="none" stroke-width="1.260974" stroke-linecap="butt" stroke-linejoin="round" stroke="rgb(14.117647%, 34.117647%, 65.490196%)" stroke-opacity="1" stroke-miterlimit="10" d="M 110.253906 392.105469 L 110.253906 387.421875 "/>
<path fill="none" stroke-width="1.260974" stroke-linecap="butt" stroke-linejoin="round" stroke="rgb(14.117647%, 34.117647%, 65.490196%)" stroke-opacity="1" stroke-miterlimit="10" d="M 110.253906 389.765625 L 83.082031 389.765625 "/>
<path fill="none" stroke-width="1.260974" stroke-linecap="butt" stroke-linejoin="round" stroke="rgb(14.117647%, 34.117647%, 65.490196%)" stroke-opacity="1" stroke-miterlimit="10" d="M 83.082031 392.105469 L 83.082031 387.421875 "/>
<path fill="none" stroke-width="1.260974" stroke-linecap="butt" stroke-linejoin="round" stroke="rgb(14.117647%, 34.117647%, 65.490196%)" stroke-opacity="1" stroke-miterlimit="10" d="M 133.277344 204.777344 L 133.277344 200.09375 "/>
<path fill="none" stroke-width="1.260974" stroke-linecap="butt" stroke-linejoin="round" stroke="rgb(14.117647%, 34.117647%, 65.490196%)" stroke-opacity="1" stroke-miterlimit="10" d="M 133.277344 202.433594 L 132.625 202.433594 "/>
<path fill="none" stroke-width="1.260974" stroke-linecap="butt" stroke-linejoin="round" stroke="rgb(14.117647%, 34.117647%, 65.490196%)" stroke-opacity="1" stroke-miterlimit="10" d="M 132.625 204.777344 L 132.625 200.09375 "/>
<path fill="none" stroke-width="1.260974" stroke-linecap="butt" stroke-linejoin="round" stroke="rgb(14.117647%, 34.117647%, 65.490196%)" stroke-opacity="1" stroke-miterlimit="10" d="M 115.691406 329.664062 L 115.691406 324.980469 "/>
<path fill="none" stroke-width="1.260974" stroke-linecap="butt" stroke-linejoin="round" stroke="rgb(14.117647%, 34.117647%, 65.490196%)" stroke-opacity="1" stroke-miterlimit="10" d="M 115.691406 327.320312 L 107.097656 327.320312 "/>
<path fill="none" stroke-width="1.260974" stroke-linecap="butt" stroke-linejoin="round" stroke="rgb(14.117647%, 34.117647%, 65.490196%)" stroke-opacity="1" stroke-miterlimit="10" d="M 107.097656 329.664062 L 107.097656 324.980469 "/>
<path fill="none" stroke-width="1.260974" stroke-linecap="butt" stroke-linejoin="round" stroke="rgb(14.117647%, 34.117647%, 65.490196%)" stroke-opacity="1" stroke-miterlimit="10" d="M 140.457031 111.109375 L 140.457031 106.425781 "/>
<path fill="none" stroke-width="1.260974" stroke-linecap="butt" stroke-linejoin="round" stroke="rgb(14.117647%, 34.117647%, 65.490196%)" stroke-opacity="1" stroke-miterlimit="10" d="M 140.457031 108.769531 L 138.703125 108.769531 "/>
<path fill="none" stroke-width="1.260974" stroke-linecap="butt" stroke-linejoin="round" stroke="rgb(14.117647%, 34.117647%, 65.490196%)" stroke-opacity="1" stroke-miterlimit="10" d="M 138.703125 111.109375 L 138.703125 106.425781 "/>
<path fill="none" stroke-width="1.260974" stroke-linecap="butt" stroke-linejoin="round" stroke="rgb(14.117647%, 34.117647%, 65.490196%)" stroke-opacity="1" stroke-miterlimit="10" d="M 131.984375 235.996094 L 131.984375 231.3125 "/>
<path fill="none" stroke-width="1.260974" stroke-linecap="butt" stroke-linejoin="round" stroke="rgb(14.117647%, 34.117647%, 65.490196%)" stroke-opacity="1" stroke-miterlimit="10" d="M 131.984375 233.65625 L 131.890625 233.65625 "/>
<path fill="none" stroke-width="1.260974" stroke-linecap="butt" stroke-linejoin="round" stroke="rgb(14.117647%, 34.117647%, 65.490196%)" stroke-opacity="1" stroke-miterlimit="10" d="M 131.890625 235.996094 L 131.890625 231.3125 "/>
<path fill="none" stroke-width="1.260974" stroke-linecap="butt" stroke-linejoin="round" stroke="rgb(14.117647%, 34.117647%, 65.490196%)" stroke-opacity="1" stroke-miterlimit="10" d="M 150.847656 79.886719 L 150.847656 75.203125 "/>
<path fill="none" stroke-width="1.260974" stroke-linecap="butt" stroke-linejoin="round" stroke="rgb(14.117647%, 34.117647%, 65.490196%)" stroke-opacity="1" stroke-miterlimit="10" d="M 150.847656 77.546875 L 142.195312 77.546875 "/>
<path fill="none" stroke-width="1.260974" stroke-linecap="butt" stroke-linejoin="round" stroke="rgb(14.117647%, 34.117647%, 65.490196%)" stroke-opacity="1" stroke-miterlimit="10" d="M 142.195312 79.886719 L 142.195312 75.203125 "/>
<path fill="none" stroke-width="1.260974" stroke-linecap="butt" stroke-linejoin="round" stroke="rgb(14.117647%, 34.117647%, 65.490196%)" stroke-opacity="1" stroke-miterlimit="10" d="M 139.902344 142.332031 L 139.902344 137.648438 "/>
<path fill="none" stroke-width="1.260974" stroke-linecap="butt" stroke-linejoin="round" stroke="rgb(14.117647%, 34.117647%, 65.490196%)" stroke-opacity="1" stroke-miterlimit="10" d="M 139.902344 139.992188 L 137.464844 139.992188 "/>
<path fill="none" stroke-width="1.260974" stroke-linecap="butt" stroke-linejoin="round" stroke="rgb(14.117647%, 34.117647%, 65.490196%)" stroke-opacity="1" stroke-miterlimit="10" d="M 137.464844 142.332031 L 137.464844 137.648438 "/>
<path fill="none" stroke-width="1.260974" stroke-linecap="butt" stroke-linejoin="round" stroke="rgb(14.117647%, 34.117647%, 65.490196%)" stroke-opacity="1" stroke-miterlimit="10" d="M 127.8125 298.441406 L 127.8125 293.757812 "/>
<path fill="none" stroke-width="1.260974" stroke-linecap="butt" stroke-linejoin="round" stroke="rgb(14.117647%, 34.117647%, 65.490196%)" stroke-opacity="1" stroke-miterlimit="10" d="M 127.8125 296.097656 L 125.851562 296.097656 "/>
<path fill="none" stroke-width="1.260974" stroke-linecap="butt" stroke-linejoin="round" stroke="rgb(14.117647%, 34.117647%, 65.490196%)" stroke-opacity="1" stroke-miterlimit="10" d="M 125.851562 298.441406 L 125.851562 293.757812 "/>
<path fill-rule="nonzero" fill="rgb(9.019608%, 22.745098%, 43.921569%)" fill-opacity="1" stroke-width="0.837509" stroke-linecap="round" stroke-linejoin="round" stroke="rgb(9.019608%, 22.745098%, 43.921569%)" stroke-opacity="1" stroke-miterlimit="10" d="M 133.675781 264.878906 C 133.675781 268.992188 127.503906 268.992188 127.503906 264.878906 C 127.503906 260.761719 133.675781 260.761719 133.675781 264.878906 "/>
<path fill-rule="nonzero" fill="rgb(9.019608%, 22.745098%, 43.921569%)" fill-opacity="1" stroke-width="0.837509" stroke-linecap="round" stroke-linejoin="round" stroke="rgb(9.019608%, 22.745098%, 43.921569%)" stroke-opacity="1" stroke-miterlimit="10" d="M 141.261719 171.210938 C 141.261719 175.328125 135.089844 175.328125 135.089844 171.210938 C 135.089844 167.097656 141.261719 167.097656 141.261719 171.210938 "/>
<path fill-rule="nonzero" fill="rgb(9.019608%, 22.745098%, 43.921569%)" fill-opacity="1" stroke-width="0.837509" stroke-linecap="round" stroke-linejoin="round" stroke="rgb(9.019608%, 22.745098%, 43.921569%)" stroke-opacity="1" stroke-miterlimit="10" d="M 110.039062 358.542969 C 110.039062 362.65625 103.867188 362.65625 103.867188 358.542969 C 103.867188 354.429688 110.039062 354.429688 110.039062 358.542969 "/>
<path fill-rule="nonzero" fill="rgb(9.019608%, 22.745098%, 43.921569%)" fill-opacity="1" stroke-width="0.837509" stroke-linecap="round" stroke-linejoin="round" stroke="rgb(9.019608%, 22.745098%, 43.921569%)" stroke-opacity="1" stroke-miterlimit="10" d="M 540.746094 46.324219 C 540.746094 50.441406 534.570312 50.441406 534.570312 46.324219 C 534.570312 42.210938 540.746094 42.210938 540.746094 46.324219 "/>
<path fill-rule="nonzero" fill="rgb(9.019608%, 22.745098%, 43.921569%)" fill-opacity="1" stroke-width="0.837509" stroke-linecap="round" stroke-linejoin="round" stroke="rgb(9.019608%, 22.745098%, 43.921569%)" stroke-opacity="1" stroke-miterlimit="10" d="M 99.753906 389.765625 C 99.753906 393.878906 93.582031 393.878906 93.582031 389.765625 C 93.582031 385.648438 99.753906 385.648438 99.753906 389.765625 "/>
<path fill-rule="nonzero" fill="rgb(9.019608%, 22.745098%, 43.921569%)" fill-opacity="1" stroke-width="0.837509" stroke-linecap="round" stroke-linejoin="round" stroke="rgb(9.019608%, 22.745098%, 43.921569%)" stroke-opacity="1" stroke-miterlimit="10" d="M 136.039062 202.433594 C 136.039062 206.546875 129.863281 206.546875 129.863281 202.433594 C 129.863281 198.320312 136.039062 198.320312 136.039062 202.433594 "/>
<path fill-rule="nonzero" fill="rgb(9.019608%, 22.745098%, 43.921569%)" fill-opacity="1" stroke-width="0.837509" stroke-linecap="round" stroke-linejoin="round" stroke="rgb(9.019608%, 22.745098%, 43.921569%)" stroke-opacity="1" stroke-miterlimit="10" d="M 114.480469 327.320312 C 114.480469 331.4375 108.308594 331.4375 108.308594 327.320312 C 108.308594 323.207031 114.480469 323.207031 114.480469 327.320312 "/>
<path fill-rule="nonzero" fill="rgb(9.019608%, 22.745098%, 43.921569%)" fill-opacity="1" stroke-width="0.837509" stroke-linecap="round" stroke-linejoin="round" stroke="rgb(9.019608%, 22.745098%, 43.921569%)" stroke-opacity="1" stroke-miterlimit="10" d="M 142.667969 108.769531 C 142.667969 112.882812 136.496094 112.882812 136.496094 108.769531 C 136.496094 104.652344 142.667969 104.652344 142.667969 108.769531 "/>
<path fill-rule="nonzero" fill="rgb(9.019608%, 22.745098%, 43.921569%)" fill-opacity="1" stroke-width="0.837509" stroke-linecap="round" stroke-linejoin="round" stroke="rgb(9.019608%, 22.745098%, 43.921569%)" stroke-opacity="1" stroke-miterlimit="10" d="M 135.023438 233.65625 C 135.023438 237.769531 128.851562 237.769531 128.851562 233.65625 C 128.851562 229.539062 135.023438 229.539062 135.023438 233.65625 "/>
<path fill-rule="nonzero" fill="rgb(9.019608%, 22.745098%, 43.921569%)" fill-opacity="1" stroke-width="0.837509" stroke-linecap="round" stroke-linejoin="round" stroke="rgb(9.019608%, 22.745098%, 43.921569%)" stroke-opacity="1" stroke-miterlimit="10" d="M 149.609375 77.546875 C 149.609375 81.660156 143.433594 81.660156 143.433594 77.546875 C 143.433594 73.433594 149.609375 73.433594 149.609375 77.546875 "/>
<path fill-rule="nonzero" fill="rgb(9.019608%, 22.745098%, 43.921569%)" fill-opacity="1" stroke-width="0.837509" stroke-linecap="round" stroke-linejoin="round" stroke="rgb(9.019608%, 22.745098%, 43.921569%)" stroke-opacity="1" stroke-miterlimit="10" d="M 141.769531 139.992188 C 141.769531 144.105469 135.597656 144.105469 135.597656 139.992188 C 135.597656 135.875 141.769531 135.875 141.769531 139.992188 "/>
<path fill-rule="nonzero" fill="rgb(9.019608%, 22.745098%, 43.921569%)" fill-opacity="1" stroke-width="0.837509" stroke-linecap="round" stroke-linejoin="round" stroke="rgb(9.019608%, 22.745098%, 43.921569%)" stroke-opacity="1" stroke-miterlimit="10" d="M 129.917969 296.097656 C 129.917969 300.214844 123.746094 300.214844 123.746094 296.097656 C 123.746094 291.984375 129.917969 291.984375 129.917969 296.097656 "/>
<g fill="rgb(30.196078%, 30.196078%, 30.196078%)" fill-opacity="1">
<use xlink:href="#glyph-0-0" x="23.253906" y="393.496094"/>
<use xlink:href="#glyph-0-1" x="26.717188" y="393.496094"/>
</g>
<g fill="rgb(30.196078%, 30.196078%, 30.196078%)" fill-opacity="1">
<use xlink:href="#glyph-0-2" x="13.410156" y="362.273438"/>
<use xlink:href="#glyph-0-3" x="18.610156" y="362.273438"/>
<use xlink:href="#glyph-0-4" x="24.394141" y="362.273438"/>
<use xlink:href="#glyph-0-5" x="30.178125" y="362.273438"/>
</g>
<g fill="rgb(30.196078%, 30.196078%, 30.196078%)" fill-opacity="1">
<use xlink:href="#glyph-0-6" x="22.085938" y="331.050781"/>
<use xlink:href="#glyph-0-7" x="27.869922" y="331.050781"/>
<use xlink:href="#glyph-0-5" x="30.180469" y="331.050781"/>
</g>
<g fill="rgb(30.196078%, 30.196078%, 30.196078%)" fill-opacity="1">
<use xlink:href="#glyph-0-1" x="9.949219" y="299.828125"/>
<use xlink:href="#glyph-0-8" x="18.6125" y="299.828125"/>
<use xlink:href="#glyph-0-6" x="24.396484" y="299.828125"/>
<use xlink:href="#glyph-0-9" x="30.180469" y="299.828125"/>
</g>
<g fill="rgb(30.196078%, 30.196078%, 30.196078%)" fill-opacity="1">
<use xlink:href="#glyph-0-10" x="24.394531" y="268.605469"/>
<use xlink:href="#glyph-0-11" x="29.594531" y="268.605469"/>
</g>
<g fill="rgb(30.196078%, 30.196078%, 30.196078%)" fill-opacity="1">
<use xlink:href="#glyph-0-12" x="21.503906" y="237.386719"/>
<use xlink:href="#glyph-0-4" x="24.393359" y="237.386719"/>
<use xlink:href="#glyph-0-13" x="30.177344" y="237.386719"/>
</g>
<g fill="rgb(30.196078%, 30.196078%, 30.196078%)" fill-opacity="1">
<use xlink:href="#glyph-0-4" x="18.027344" y="206.164062"/>
<use xlink:href="#glyph-0-14" x="23.811328" y="206.164062"/>
<use xlink:href="#glyph-0-8" x="29.595312" y="206.164062"/>
</g>
<g fill="rgb(30.196078%, 30.196078%, 30.196078%)" fill-opacity="1">
<use xlink:href="#glyph-0-7" x="10.515625" y="174.941406"/>
<use xlink:href="#glyph-0-11" x="12.826172" y="174.941406"/>
<use xlink:href="#glyph-0-6" x="18.610156" y="174.941406"/>
<use xlink:href="#glyph-0-15" x="24.394141" y="174.941406"/>
<use xlink:href="#glyph-0-5" x="30.178125" y="174.941406"/>
</g>
<g fill="rgb(30.196078%, 30.196078%, 30.196078%)" fill-opacity="1">
<use xlink:href="#glyph-0-16" x="16.304688" y="143.71875"/>
<use xlink:href="#glyph-0-5" x="18.615234" y="143.71875"/>
<use xlink:href="#glyph-0-12" x="23.815234" y="143.71875"/>
<use xlink:href="#glyph-0-4" x="26.704687" y="143.71875"/>
<use xlink:href="#glyph-0-12" x="32.488672" y="143.71875"/>
</g>
<g fill="rgb(30.196078%, 30.196078%, 30.196078%)" fill-opacity="1">
<use xlink:href="#glyph-0-0" x="20.347656" y="112.5"/>
<use xlink:href="#glyph-0-4" x="23.810938" y="112.5"/>
<use xlink:href="#glyph-0-6" x="29.594922" y="112.5"/>
</g>
<g fill="rgb(30.196078%, 30.196078%, 30.196078%)" fill-opacity="1">
<use xlink:href="#glyph-0-17" x="6.472656" y="81.277344"/>
<use xlink:href="#glyph-0-12" x="12.256641" y="81.277344"/>
<use xlink:href="#glyph-0-0" x="15.146094" y="81.277344"/>
<use xlink:href="#glyph-0-4" x="18.609375" y="81.277344"/>
<use xlink:href="#glyph-0-12" x="24.393359" y="81.277344"/>
<use xlink:href="#glyph-0-7" x="27.282812" y="81.277344"/>
<use xlink:href="#glyph-0-18" x="29.593359" y="81.277344"/>
</g>
<g fill="rgb(30.196078%, 30.196078%, 30.196078%)" fill-opacity="1">
<use xlink:href="#glyph-0-11" x="18.609375" y="50.054688"/>
<use xlink:href="#glyph-0-18" x="24.393359" y="50.054688"/>
<use xlink:href="#glyph-0-13" x="30.177344" y="50.054688"/>
</g>
<g fill="rgb(30.196078%, 30.196078%, 30.196078%)" fill-opacity="1">
<use xlink:href="#glyph-0-19" x="128.660156" y="421.785156"/>
</g>
<g fill="rgb(30.196078%, 30.196078%, 30.196078%)" fill-opacity="1">
<use xlink:href="#glyph-0-20" x="255.726562" y="421.785156"/>
<use xlink:href="#glyph-0-19" x="261.510547" y="421.785156"/>
</g>
<g fill="rgb(30.196078%, 30.196078%, 30.196078%)" fill-opacity="1">
<use xlink:href="#glyph-0-21" x="385.6875" y="421.785156"/>
<use xlink:href="#glyph-0-19" x="391.471484" y="421.785156"/>
</g>
<g fill="rgb(30.196078%, 30.196078%, 30.196078%)" fill-opacity="1">
<use xlink:href="#glyph-0-22" x="515.648438" y="421.785156"/>
<use xlink:href="#glyph-0-19" x="521.432422" y="421.785156"/>
</g>
<g fill="rgb(0%, 0%, 0%)" fill-opacity="1">
<use xlink:href="#glyph-1-0" x="318.964844" y="436.648438"/>
<use xlink:href="#glyph-1-0" x="327.204102" y="436.648438"/>
<use xlink:href="#glyph-1-0" x="335.443359" y="436.648438"/>
<use xlink:href="#glyph-1-1" x="343.682617" y="436.648438"/>
<use xlink:href="#glyph-1-0" x="347.294434" y="436.648438"/>
<use xlink:href="#glyph-1-0" x="355.533691" y="436.648438"/>
</g>
<g fill="rgb(0%, 0%, 0%)" fill-opacity="1">
<use xlink:href="#glyph-2-0" x="41.207031" y="17.664062"/>
<use xlink:href="#glyph-2-1" x="49.883008" y="17.664062"/>
<use xlink:href="#glyph-2-2" x="58.558984" y="17.664062"/>
<use xlink:href="#glyph-2-3" x="68.446094" y="17.664062"/>
<use xlink:href="#glyph-2-2" x="72.780273" y="17.664062"/>
<use xlink:href="#glyph-2-2" x="82.667383" y="17.664062"/>
<use xlink:href="#glyph-2-2" x="92.554492" y="17.664062"/>
<use xlink:href="#glyph-2-2" x="102.441602" y="17.664062"/>
<use xlink:href="#glyph-2-3" x="112.328711" y="17.664062"/>
<use xlink:href="#glyph-2-2" x="116.662891" y="17.664062"/>
<use xlink:href="#glyph-2-2" x="126.55" y="17.664062"/>
<use xlink:href="#glyph-2-2" x="136.437109" y="17.664062"/>
<use xlink:href="#glyph-2-2" x="146.324219" y="17.664062"/>
<use xlink:href="#glyph-2-3" x="156.211328" y="17.664062"/>
<use xlink:href="#glyph-2-4" x="160.545508" y="17.664062"/>
<use xlink:href="#glyph-2-5" x="169.221484" y="17.664062"/>
<use xlink:href="#glyph-2-6" x="177.897461" y="17.664062"/>
<use xlink:href="#glyph-2-3" x="191.768359" y="17.664062"/>
<use xlink:href="#glyph-2-2" x="196.102539" y="17.664062"/>
<use xlink:href="#glyph-2-2" x="205.989648" y="17.664062"/>
<use xlink:href="#glyph-2-2" x="215.876758" y="17.664062"/>
<use xlink:href="#glyph-2-2" x="225.763867" y="17.664062"/>
</g>
</svg>
